# xmcd
#
# Track frame offsets: 
#        183
#        12043
#        25715
#        38835
#        50808
#        63708
#        75740
#        88308
#        99143
#        112405
#        124398
#        135413
#        151948
#        159268
#
# Disc length: 2287 seconds
#
# Revision: 0
# Processed by: cddbd v1.5.2PL0 Copyright (c) Steve Scherf et al.
# Submitted via: ExactAudioCopy v0.95b4
#
DISCID=b208ed0e
DTITLE=Collectables Records - Alley Special
DYEAR=1900
DGENRE=Blues
TTITLE0=Wright Holmes - Good Road Blues
TTITLE1=Wright Holmes - Alley Special
TTITLE2=Sonny Boy Johnson - Quinsella
TTITLE3=Wright Holmes - Drove From Home Blues
TTITLE4=David Pete McKinley - Ardelle
TTITLE5=Stick "Horse" Hammond - Little Girl
TTITLE6=Stick "Horse" Hammond - Truck 'em On Down
TTITLE7=Muddy Waters (as James Carter) - Mean Red Spider
TTITLE8=Baby Boy Warren - Nervy Women Blues
TTITLE9=Baby Boy Warren - My Special Friend Blues
TTITLE10=W Harris - Angel of Mercy
TTITLE11=W Harris - Low Down Dirty Shame
TTITLE12=Eddie Burns - Untitled Blues
TTITLE13=David Pete McKinley - Shreveport Blues
EXTD=
EXTT0=
EXTT1=
EXTT2=
EXTT3=
EXTT4=
EXTT5=
EXTT6=
EXTT7=
EXTT8=
EXTT9=
EXTT10=
EXTT11=
EXTT12=
EXTT13=
PLAYORDER=
